<svg xmlns="http://www.w3.org/2000/svg" viewBox="8 8 32 32" role="img" aria-label="Daylight Tide Finder">
  <!-- ESA brand mark: coral tile (#f48156 = ESA coral 400) + white ESA glyph.
       Literal hex because a standalone favicon SVG cannot resolve CSS custom properties.
       Matches the app-shell lockup used across ESA apps (wave-runup, TalentBridge). -->
  <rect x="8" y="8" width="32" height="32" rx="8" fill="#f48156" />
  <g transform="translate(11.9, 16.7) scale(0.297)" fill="#ffffff">
    <path d="M21.4039 0.955719H0V22.3521C1.10379 11.021 10.0724 2.05556 21.4039 0.955719Z" />
    <path d="M26.0003 48.3562H47.4023V26.956C46.3004 38.2879 37.3323 47.2552 26.0003 48.3562Z" />
    <path d="M30.6864 20.4844H32.9911V1.46747H30.6864V0.95572H47.4023V6.62047H46.8794V6.22451C46.8794 3.63214 44.9724 1.46747 41.5844 1.46747H37.4344V10.1822H39.4086C41.2576 10.1822 42.2269 9.12879 42.2269 6.42249V6.10311H42.7387V15.1073H42.2269V14.4518C42.2269 12.429 41.2576 10.6939 39.4086 10.6939H37.4344V20.4844H41.5433C46.2126 20.4844 46.8943 16.6108 46.8943 14.9859V14.5937H47.4098V21.0037H30.6864V20.4844ZM49.4213 13.4563H49.9331C50.6166 16.6743 52.7794 20.9439 56.6232 20.9439C59.0736 20.9439 60.7228 19.4367 60.7228 16.9302C60.7228 10.7219 49.3634 15.1951 49.3634 6.62047C49.3634 2.86078 51.868 0.5 55.6258 0.5C58.504 0.5 59.4154 2.03525 60.7004 2.03525C61.5558 2.03525 61.6137 1.28817 61.6137 0.927704H62.1273V7.33393H61.6137C60.9021 4.31385 59.3071 1.01175 55.7173 1.01175C53.5508 1.01175 51.9222 2.46483 51.9222 4.65751C51.9222 10.1542 63.4571 5.82483 63.4571 14.2818C63.4571 18.7232 60.9507 21.4575 56.9351 21.4575C54.4585 21.4575 52.1239 19.9783 50.9846 19.9783C50.2151 19.9783 49.9312 20.49 49.9312 21.0317H49.4194L49.4213 13.4563ZM62.3178 20.4844H62.6914C63.7728 20.4004 64.2882 19.7149 64.63 18.7736L71.2305 0.5H71.6601L79.2915 20.4844H80.6848V20.9981H72.1998V20.4844H74.4747L72.3997 14.5657H66.875L65.5079 18.5812C65.3914 18.8524 65.3237 19.142 65.308 19.4367C65.308 20.3705 66.1055 20.49 66.677 20.49H67.4727V21.0037H62.3178V20.4844ZM72.17 14.0483L69.6934 6.85019H69.6373L67.1029 14.0539L72.17 14.0483Z" />
  </g>
</svg>
